<?xml version="1.0" encoding="UTF-8" standalone="no"?>
<!DOCTYPE svg PUBLIC "-//W3C//DTD SVG 1.1//EN"
 "http://www.w3.org/Graphics/SVG/1.1/DTD/svg11.dtd">
<!-- Generated by graphviz version 2.40.1 (20161225.0304)
 -->
<!-- Title: dependencies Pages: 1 -->
<svg width="1069pt" height="284pt"
 viewBox="0.00 0.00 1069.00 284.00" xmlns="http://www.w3.org/2000/svg" xmlns:xlink="http://www.w3.org/1999/xlink">
<g id="graph0" class="graph" transform="scale(1 1) rotate(0) translate(4 280)">
<title>dependencies</title>
<polygon fill="#ffffff" stroke="transparent" points="-4,4 -4,-280 1065,-280 1065,4 -4,4"/>
<text text-anchor="start" x="509.5091" y="-42.4" font-family="sans-serif" font-weight="bold" font-size="14.00" fill="#000000">Legend</text>
<polygon fill="#ffffb3" stroke="transparent" points="296.5,-10 296.5,-30 316.5,-30 316.5,-10 296.5,-10"/>
<text text-anchor="start" x="320.129" y="-15.4" font-family="sans-serif" font-size="14.00" fill="#000000"> &#160;Declarations</text>
<polygon fill="#8dd3c7" stroke="transparent" points="409.5,-10 409.5,-30 429.5,-30 429.5,-10 409.5,-10"/>
<text text-anchor="start" x="433.2251" y="-15.4" font-family="sans-serif" font-size="14.00" fill="#000000"> &#160;Module</text>
<polygon fill="#80b1d3" stroke="transparent" points="495.5,-10 495.5,-30 515.5,-30 515.5,-10 495.5,-10"/>
<text text-anchor="start" x="519.2812" y="-15.4" font-family="sans-serif" font-size="14.00" fill="#000000"> &#160;Bootstrap</text>
<polygon fill="#fdb462" stroke="transparent" points="592.5,-10 592.5,-30 612.5,-30 612.5,-10 592.5,-10"/>
<text text-anchor="start" x="616.1732" y="-15.4" font-family="sans-serif" font-size="14.00" fill="#000000"> &#160;Providers</text>
<polygon fill="#fb8072" stroke="transparent" points="688.5,-10 688.5,-30 708.5,-30 708.5,-10 688.5,-10"/>
<text text-anchor="start" x="712.2258" y="-15.4" font-family="sans-serif" font-size="14.00" fill="#000000"> &#160;Exports</text>
<g id="clust1" class="cluster">
<title>cluster_CoreModule</title>
<polygon fill="none" stroke="#000000" stroke-dasharray="1,5" points="8,-70 8,-268 1053,-268 1053,-70 8,-70"/>
</g>
<g id="clust2" class="cluster">
<title>cluster_CoreModule_declarations</title>
<polygon fill="none" stroke="#000000" points="773,-78 773,-130 1045,-130 1045,-78 773,-78"/>
</g>
<g id="clust5" class="cluster">
<title>cluster_CoreModule_imports</title>
<polygon fill="none" stroke="#000000" points="504,-78 504,-130 765,-130 765,-78 504,-78"/>
</g>
<g id="clust6" class="cluster">
<title>cluster_CoreModule_exports</title>
<polygon fill="none" stroke="#000000" points="432,-208 432,-260 724,-260 724,-208 432,-208"/>
</g>
<g id="clust8" class="cluster">
<title>cluster_CoreModule_providers</title>
<polygon fill="none" stroke="#000000" points="16,-78 16,-130 496,-130 496,-78 16,-78"/>
</g>
<!-- HeaderComponent -->
<g id="node1" class="node">
<title>HeaderComponent</title>
<polygon fill="#ffffb3" stroke="#000000" points="1036.7437,-122 915.2563,-122 915.2563,-86 1036.7437,-86 1036.7437,-122"/>
<text text-anchor="middle" x="976" y="-99.8" font-family="Times,serif" font-size="14.00" fill="#000000">HeaderComponent</text>
</g>
<!-- CoreModule -->
<g id="node3" class="node">
<title>CoreModule</title>
<polygon fill="#8dd3c7" stroke="#000000" points="619.2619,-187 616.2619,-191 595.2619,-191 592.2619,-187 532.7381,-187 532.7381,-151 619.2619,-151 619.2619,-187"/>
<text text-anchor="middle" x="576" y="-164.8" font-family="Times,serif" font-size="14.00" fill="#000000">CoreModule</text>
</g>
<!-- HeaderComponent&#45;&gt;CoreModule -->
<g id="edge1" class="edge">
<title>HeaderComponent&#45;&gt;CoreModule</title>
<path fill="none" stroke="#000000" d="M976,-122.2921C976,-144.2057 976,-178 976,-178 976,-178 629.5685,-178 629.5685,-178"/>
<polygon fill="#000000" stroke="#000000" points="629.5685,-174.5001 619.5685,-178 629.5684,-181.5001 629.5685,-174.5001"/>
</g>
<!-- HomeComponent -->
<g id="node2" class="node">
<title>HomeComponent</title>
<polygon fill="#ffffb3" stroke="#000000" points="896.5451,-122 781.4549,-122 781.4549,-86 896.5451,-86 896.5451,-122"/>
<text text-anchor="middle" x="839" y="-99.8" font-family="Times,serif" font-size="14.00" fill="#000000">HomeComponent</text>
</g>
<!-- HomeComponent&#45;&gt;CoreModule -->
<g id="edge2" class="edge">
<title>HomeComponent&#45;&gt;CoreModule</title>
<path fill="none" stroke="#000000" d="M839,-122.1061C839,-141.3391 839,-169 839,-169 839,-169 629.4291,-169 629.4291,-169"/>
<polygon fill="#000000" stroke="#000000" points="629.4291,-165.5001 619.4291,-169 629.4291,-172.5001 629.4291,-165.5001"/>
</g>
<!-- AppRoutingModule  -->
<g id="node6" class="node">
<title>AppRoutingModule </title>
<polygon fill="#fb8072" stroke="#000000" points="716.2745,-252 583.7255,-252 583.7255,-216 716.2745,-216 716.2745,-252"/>
<text text-anchor="middle" x="650" y="-229.8" font-family="Times,serif" font-size="14.00" fill="#000000">AppRoutingModule </text>
</g>
<!-- CoreModule&#45;&gt;AppRoutingModule  -->
<g id="edge5" class="edge">
<title>CoreModule&#45;&gt;AppRoutingModule </title>
<path fill="none" stroke="#000000" stroke-dasharray="5,2" d="M601.6219,-187.1061C601.6219,-187.1061 601.6219,-205.991 601.6219,-205.991"/>
<polygon fill="#000000" stroke="#000000" points="598.1219,-205.9909 601.6219,-215.991 605.1219,-205.991 598.1219,-205.9909"/>
</g>
<!-- HeaderComponent  -->
<g id="node7" class="node">
<title>HeaderComponent </title>
<polygon fill="#fb8072" stroke="#000000" points="565.7436,-252 440.2564,-252 440.2564,-216 565.7436,-216 565.7436,-252"/>
<text text-anchor="middle" x="503" y="-229.8" font-family="Times,serif" font-size="14.00" fill="#000000">HeaderComponent </text>
</g>
<!-- CoreModule&#45;&gt;HeaderComponent  -->
<g id="edge6" class="edge">
<title>CoreModule&#45;&gt;HeaderComponent </title>
<path fill="none" stroke="#000000" stroke-dasharray="5,2" d="M549.1205,-187.1061C549.1205,-187.1061 549.1205,-205.991 549.1205,-205.991"/>
<polygon fill="#000000" stroke="#000000" points="545.6205,-205.9909 549.1205,-215.991 552.6205,-205.991 545.6205,-205.9909"/>
</g>
<!-- SharedModule -->
<g id="node4" class="node">
<title>SharedModule</title>
<polygon fill="#8dd3c7" stroke="#000000" points="757.4231,-122 754.4231,-126 733.4231,-126 730.4231,-122 658.5769,-122 658.5769,-86 757.4231,-86 757.4231,-122"/>
<text text-anchor="middle" x="708" y="-99.8" font-family="Times,serif" font-size="14.00" fill="#000000">SharedModule</text>
</g>
<!-- SharedModule&#45;&gt;CoreModule -->
<g id="edge3" class="edge">
<title>SharedModule&#45;&gt;CoreModule</title>
<path fill="none" stroke="#000000" d="M687.463,-122.027C687.463,-138.3976 687.463,-160 687.463,-160 687.463,-160 629.4137,-160 629.4137,-160"/>
<polygon fill="#000000" stroke="#000000" points="629.4137,-156.5001 619.4137,-160 629.4136,-163.5001 629.4137,-156.5001"/>
</g>
<!-- AppRoutingModule -->
<g id="node5" class="node">
<title>AppRoutingModule</title>
<polygon fill="#8dd3c7" stroke="#000000" points="640.2744,-122 637.2744,-126 616.2744,-126 613.2744,-122 511.7256,-122 511.7256,-86 640.2744,-86 640.2744,-122"/>
<text text-anchor="middle" x="576" y="-99.8" font-family="Times,serif" font-size="14.00" fill="#000000">AppRoutingModule</text>
</g>
<!-- AppRoutingModule&#45;&gt;CoreModule -->
<g id="edge4" class="edge">
<title>AppRoutingModule&#45;&gt;CoreModule</title>
<path fill="none" stroke="#000000" d="M576,-122.1061C576,-122.1061 576,-140.991 576,-140.991"/>
<polygon fill="#000000" stroke="#000000" points="572.5001,-140.9909 576,-150.991 579.5001,-140.991 572.5001,-140.9909"/>
</g>
<!-- RecipeService -->
<g id="node8" class="node">
<title>RecipeService</title>
<ellipse fill="#fdb462" stroke="#000000" cx="421" cy="-104" rx="66.6094" ry="18"/>
<text text-anchor="middle" x="421" y="-99.8" font-family="Times,serif" font-size="14.00" fill="#000000">RecipeService</text>
</g>
<!-- RecipeService&#45;&gt;CoreModule -->
<g id="edge7" class="edge">
<title>RecipeService&#45;&gt;CoreModule</title>
<path fill="none" stroke="#000000" d="M464.0913,-117.8427C464.0913,-134.4259 464.0913,-160 464.0913,-160 464.0913,-160 522.7332,-160 522.7332,-160"/>
<polygon fill="#000000" stroke="#000000" points="522.7332,-163.5001 532.7332,-160 522.7332,-156.5001 522.7332,-163.5001"/>
</g>
<!-- DataStorageService -->
<g id="node9" class="node">
<title>DataStorageService</title>
<ellipse fill="#fdb462" stroke="#000000" cx="248" cy="-104" rx="87.9355" ry="18"/>
<text text-anchor="middle" x="248" y="-99.8" font-family="Times,serif" font-size="14.00" fill="#000000">DataStorageService</text>
</g>
<!-- DataStorageService&#45;&gt;CoreModule -->
<g id="edge8" class="edge">
<title>DataStorageService&#45;&gt;CoreModule</title>
<path fill="none" stroke="#000000" d="M248,-122.1061C248,-141.3391 248,-169 248,-169 248,-169 522.4441,-169 522.4441,-169"/>
<polygon fill="#000000" stroke="#000000" points="522.4442,-172.5001 532.4441,-169 522.4441,-165.5001 522.4442,-172.5001"/>
</g>
<!-- AuthService -->
<g id="node10" class="node">
<title>AuthService</title>
<ellipse fill="#fdb462" stroke="#000000" cx="83" cy="-104" rx="59.1083" ry="18"/>
<text text-anchor="middle" x="83" y="-99.8" font-family="Times,serif" font-size="14.00" fill="#000000">AuthService</text>
</g>
<!-- AuthService&#45;&gt;CoreModule -->
<g id="edge9" class="edge">
<title>AuthService&#45;&gt;CoreModule</title>
<path fill="none" stroke="#000000" d="M83,-122.2921C83,-144.2057 83,-178 83,-178 83,-178 522.6816,-178 522.6816,-178"/>
<polygon fill="#000000" stroke="#000000" points="522.6817,-181.5001 532.6816,-178 522.6816,-174.5001 522.6817,-181.5001"/>
</g>
</g>
</svg>
