<?xml version="1.0" encoding="UTF-8" standalone="no"?>
<!DOCTYPE svg PUBLIC "-//W3C//DTD SVG 1.1//EN"
 "http://www.w3.org/Graphics/SVG/1.1/DTD/svg11.dtd">
<!-- Generated by graphviz version 2.40.1 (20161225.0304)
 -->
<!-- Title: dependencies Pages: 1 -->
<svg width="1293pt" height="211pt"
 viewBox="0.00 0.00 1293.00 211.00" xmlns="http://www.w3.org/2000/svg" xmlns:xlink="http://www.w3.org/1999/xlink">
<g id="graph0" class="graph" transform="scale(1 1) rotate(0) translate(4 207)">
<title>dependencies</title>
<polygon fill="#ffffff" stroke="transparent" points="-4,4 -4,-207 1289,-207 1289,4 -4,4"/>
<text text-anchor="start" x="621.5091" y="-42.4" font-family="sans-serif" font-weight="bold" font-size="14.00" fill="#000000">Legend</text>
<polygon fill="#ffffb3" stroke="transparent" points="408.5,-10 408.5,-30 428.5,-30 428.5,-10 408.5,-10"/>
<text text-anchor="start" x="432.129" y="-15.4" font-family="sans-serif" font-size="14.00" fill="#000000"> &#160;Declarations</text>
<polygon fill="#8dd3c7" stroke="transparent" points="521.5,-10 521.5,-30 541.5,-30 541.5,-10 521.5,-10"/>
<text text-anchor="start" x="545.2251" y="-15.4" font-family="sans-serif" font-size="14.00" fill="#000000"> &#160;Module</text>
<polygon fill="#80b1d3" stroke="transparent" points="607.5,-10 607.5,-30 627.5,-30 627.5,-10 607.5,-10"/>
<text text-anchor="start" x="631.2812" y="-15.4" font-family="sans-serif" font-size="14.00" fill="#000000"> &#160;Bootstrap</text>
<polygon fill="#fdb462" stroke="transparent" points="704.5,-10 704.5,-30 724.5,-30 724.5,-10 704.5,-10"/>
<text text-anchor="start" x="728.1732" y="-15.4" font-family="sans-serif" font-size="14.00" fill="#000000"> &#160;Providers</text>
<polygon fill="#fb8072" stroke="transparent" points="800.5,-10 800.5,-30 820.5,-30 820.5,-10 800.5,-10"/>
<text text-anchor="start" x="824.2258" y="-15.4" font-family="sans-serif" font-size="14.00" fill="#000000"> &#160;Exports</text>
<g id="clust1" class="cluster">
<title>cluster_RecipesModule</title>
<polygon fill="none" stroke="#000000" stroke-dasharray="1,5" points="8,-70 8,-195 1277,-195 1277,-70 8,-70"/>
</g>
<g id="clust2" class="cluster">
<title>cluster_RecipesModule_declarations</title>
<polygon fill="none" stroke="#000000" points="305,-78 305,-130 1269,-130 1269,-78 305,-78"/>
</g>
<g id="clust9" class="cluster">
<title>cluster_RecipesModule_imports</title>
<polygon fill="none" stroke="#000000" points="16,-78 16,-130 297,-130 297,-78 16,-78"/>
</g>
<!-- RecipesComponent -->
<g id="node1" class="node">
<title>RecipesComponent</title>
<polygon fill="#ffffb3" stroke="#000000" points="1260.6485,-122 1135.3515,-122 1135.3515,-86 1260.6485,-86 1260.6485,-122"/>
<text text-anchor="middle" x="1198" y="-99.8" font-family="Times,serif" font-size="14.00" fill="#000000">RecipesComponent</text>
</g>
<!-- RecipesModule -->
<g id="node7" class="node">
<title>RecipesModule</title>
<polygon fill="#8dd3c7" stroke="#000000" points="688.8655,-187 685.8655,-191 664.8655,-191 661.8655,-187 585.1345,-187 585.1345,-151 688.8655,-151 688.8655,-187"/>
<text text-anchor="middle" x="637" y="-164.8" font-family="Times,serif" font-size="14.00" fill="#000000">RecipesModule</text>
</g>
<!-- RecipesComponent&#45;&gt;RecipesModule -->
<g id="edge1" class="edge">
<title>RecipesComponent&#45;&gt;RecipesModule</title>
<path fill="none" stroke="#000000" d="M1198,-122.2921C1198,-144.2057 1198,-178 1198,-178 1198,-178 699.0226,-178 699.0226,-178"/>
<polygon fill="#000000" stroke="#000000" points="699.0226,-174.5001 689.0226,-178 699.0226,-181.5001 699.0226,-174.5001"/>
</g>
<!-- RecipeStartComponent -->
<g id="node2" class="node">
<title>RecipeStartComponent</title>
<polygon fill="#ffffb3" stroke="#000000" points="1117.1428,-122 970.8572,-122 970.8572,-86 1117.1428,-86 1117.1428,-122"/>
<text text-anchor="middle" x="1044" y="-99.8" font-family="Times,serif" font-size="14.00" fill="#000000">RecipeStartComponent</text>
</g>
<!-- RecipeStartComponent&#45;&gt;RecipesModule -->
<g id="edge2" class="edge">
<title>RecipeStartComponent&#45;&gt;RecipesModule</title>
<path fill="none" stroke="#000000" d="M1044,-122.1061C1044,-141.3391 1044,-169 1044,-169 1044,-169 698.9602,-169 698.9602,-169"/>
<polygon fill="#000000" stroke="#000000" points="698.9603,-165.5001 688.9602,-169 698.9602,-172.5001 698.9603,-165.5001"/>
</g>
<!-- RecipeListComponent -->
<g id="node3" class="node">
<title>RecipeListComponent</title>
<polygon fill="#ffffb3" stroke="#000000" points="952.9818,-122 811.0182,-122 811.0182,-86 952.9818,-86 952.9818,-122"/>
<text text-anchor="middle" x="882" y="-99.8" font-family="Times,serif" font-size="14.00" fill="#000000">RecipeListComponent</text>
</g>
<!-- RecipeListComponent&#45;&gt;RecipesModule -->
<g id="edge3" class="edge">
<title>RecipeListComponent&#45;&gt;RecipesModule</title>
<path fill="none" stroke="#000000" d="M882,-122.027C882,-138.3976 882,-160 882,-160 882,-160 698.9582,-160 698.9582,-160"/>
<polygon fill="#000000" stroke="#000000" points="698.9582,-156.5001 688.9582,-160 698.9582,-163.5001 698.9582,-156.5001"/>
</g>
<!-- RecipeEditComponent -->
<g id="node4" class="node">
<title>RecipeEditComponent</title>
<polygon fill="#ffffb3" stroke="#000000" points="792.5379,-122 649.4621,-122 649.4621,-86 792.5379,-86 792.5379,-122"/>
<text text-anchor="middle" x="721" y="-99.8" font-family="Times,serif" font-size="14.00" fill="#000000">RecipeEditComponent</text>
</g>
<!-- RecipeEditComponent&#45;&gt;RecipesModule -->
<g id="edge4" class="edge">
<title>RecipeEditComponent&#45;&gt;RecipesModule</title>
<path fill="none" stroke="#000000" d="M669.0821,-122.1061C669.0821,-122.1061 669.0821,-140.991 669.0821,-140.991"/>
<polygon fill="#000000" stroke="#000000" points="665.5821,-140.9909 669.0821,-150.991 672.5821,-140.991 665.5821,-140.9909"/>
</g>
<!-- RecipeDetailComponent -->
<g id="node5" class="node">
<title>RecipeDetailComponent</title>
<polygon fill="#ffffb3" stroke="#000000" points="631.4115,-122 476.5885,-122 476.5885,-86 631.4115,-86 631.4115,-122"/>
<text text-anchor="middle" x="554" y="-99.8" font-family="Times,serif" font-size="14.00" fill="#000000">RecipeDetailComponent</text>
</g>
<!-- RecipeDetailComponent&#45;&gt;RecipesModule -->
<g id="edge5" class="edge">
<title>RecipeDetailComponent&#45;&gt;RecipesModule</title>
<path fill="none" stroke="#000000" d="M608.1364,-122.1061C608.1364,-122.1061 608.1364,-140.991 608.1364,-140.991"/>
<polygon fill="#000000" stroke="#000000" points="604.6365,-140.9909 608.1364,-150.991 611.6365,-140.991 604.6365,-140.9909"/>
</g>
<!-- RecipeItemComponent -->
<g id="node6" class="node">
<title>RecipeItemComponent</title>
<polygon fill="#ffffb3" stroke="#000000" points="458.8599,-122 313.1401,-122 313.1401,-86 458.8599,-86 458.8599,-122"/>
<text text-anchor="middle" x="386" y="-99.8" font-family="Times,serif" font-size="14.00" fill="#000000">RecipeItemComponent</text>
</g>
<!-- RecipeItemComponent&#45;&gt;RecipesModule -->
<g id="edge6" class="edge">
<title>RecipeItemComponent&#45;&gt;RecipesModule</title>
<path fill="none" stroke="#000000" d="M386,-122.027C386,-138.3976 386,-160 386,-160 386,-160 574.9926,-160 574.9926,-160"/>
<polygon fill="#000000" stroke="#000000" points="574.9927,-163.5001 584.9926,-160 574.9926,-156.5001 574.9927,-163.5001"/>
</g>
<!-- RecipesRoutingModule -->
<g id="node8" class="node">
<title>RecipesRoutingModule</title>
<polygon fill="#8dd3c7" stroke="#000000" points="289.4832,-122 286.4832,-126 265.4832,-126 262.4832,-122 140.5168,-122 140.5168,-86 289.4832,-86 289.4832,-122"/>
<text text-anchor="middle" x="215" y="-99.8" font-family="Times,serif" font-size="14.00" fill="#000000">RecipesRoutingModule</text>
</g>
<!-- RecipesRoutingModule&#45;&gt;RecipesModule -->
<g id="edge7" class="edge">
<title>RecipesRoutingModule&#45;&gt;RecipesModule</title>
<path fill="none" stroke="#000000" d="M215,-122.1061C215,-141.3391 215,-169 215,-169 215,-169 574.8313,-169 574.8313,-169"/>
<polygon fill="#000000" stroke="#000000" points="574.8313,-172.5001 584.8313,-169 574.8312,-165.5001 574.8313,-172.5001"/>
</g>
<!-- SharedModule -->
<g id="node9" class="node">
<title>SharedModule</title>
<polygon fill="#8dd3c7" stroke="#000000" points="122.4231,-122 119.4231,-126 98.4231,-126 95.4231,-122 23.5769,-122 23.5769,-86 122.4231,-86 122.4231,-122"/>
<text text-anchor="middle" x="73" y="-99.8" font-family="Times,serif" font-size="14.00" fill="#000000">SharedModule</text>
</g>
<!-- SharedModule&#45;&gt;RecipesModule -->
<g id="edge8" class="edge">
<title>SharedModule&#45;&gt;RecipesModule</title>
<path fill="none" stroke="#000000" d="M73,-122.2921C73,-144.2057 73,-178 73,-178 73,-178 574.9512,-178 574.9512,-178"/>
<polygon fill="#000000" stroke="#000000" points="574.9512,-181.5001 584.9512,-178 574.9511,-174.5001 574.9512,-181.5001"/>
</g>
</g>
</svg>
