<?xml version="1.0" encoding="UTF-8" standalone="no"?>
<!DOCTYPE svg PUBLIC "-//W3C//DTD SVG 1.1//EN"
 "http://www.w3.org/Graphics/SVG/1.1/DTD/svg11.dtd">
<!-- Generated by graphviz version 2.40.1 (20161225.0304)
 -->
<!-- Title: dependencies Pages: 1 -->
<svg width="504pt" height="211pt"
 viewBox="0.00 0.00 504.00 211.00" xmlns="http://www.w3.org/2000/svg" xmlns:xlink="http://www.w3.org/1999/xlink">
<g id="graph0" class="graph" transform="scale(1 1) rotate(0) translate(4 207)">
<title>dependencies</title>
<polygon fill="#ffffff" stroke="transparent" points="-4,4 -4,-207 500,-207 500,4 -4,4"/>
<text text-anchor="start" x="227.0091" y="-42.4" font-family="sans-serif" font-weight="bold" font-size="14.00" fill="#000000">Legend</text>
<polygon fill="#ffffb3" stroke="transparent" points="14,-10 14,-30 34,-30 34,-10 14,-10"/>
<text text-anchor="start" x="37.629" y="-15.4" font-family="sans-serif" font-size="14.00" fill="#000000"> &#160;Declarations</text>
<polygon fill="#8dd3c7" stroke="transparent" points="127,-10 127,-30 147,-30 147,-10 127,-10"/>
<text text-anchor="start" x="150.7251" y="-15.4" font-family="sans-serif" font-size="14.00" fill="#000000"> &#160;Module</text>
<polygon fill="#80b1d3" stroke="transparent" points="213,-10 213,-30 233,-30 233,-10 213,-10"/>
<text text-anchor="start" x="236.7812" y="-15.4" font-family="sans-serif" font-size="14.00" fill="#000000"> &#160;Bootstrap</text>
<polygon fill="#fdb462" stroke="transparent" points="310,-10 310,-30 330,-30 330,-10 310,-10"/>
<text text-anchor="start" x="333.6732" y="-15.4" font-family="sans-serif" font-size="14.00" fill="#000000"> &#160;Providers</text>
<polygon fill="#fb8072" stroke="transparent" points="406,-10 406,-30 426,-30 426,-10 406,-10"/>
<text text-anchor="start" x="429.7258" y="-15.4" font-family="sans-serif" font-size="14.00" fill="#000000"> &#160;Exports</text>
<g id="clust1" class="cluster">
<title>cluster_ShoppingListModule</title>
<polygon fill="none" stroke="#000000" stroke-dasharray="1,5" points="65.5,-70 65.5,-195 430.5,-195 430.5,-70 65.5,-70"/>
</g>
<g id="clust2" class="cluster">
<title>cluster_ShoppingListModule_declarations</title>
<polygon fill="none" stroke="#000000" points="73.5,-78 73.5,-130 422.5,-130 422.5,-78 73.5,-78"/>
</g>
<!-- ShoppingListComponent -->
<g id="node1" class="node">
<title>ShoppingListComponent</title>
<polygon fill="#ffffb3" stroke="#000000" points="414.7841,-122 258.2159,-122 258.2159,-86 414.7841,-86 414.7841,-122"/>
<text text-anchor="middle" x="336.5" y="-99.8" font-family="Times,serif" font-size="14.00" fill="#000000">ShoppingListComponent</text>
</g>
<!-- ShoppingListModule -->
<g id="node3" class="node">
<title>ShoppingListModule</title>
<polygon fill="#8dd3c7" stroke="#000000" points="316.0014,-187 313.0014,-191 292.0014,-191 289.0014,-187 180.9986,-187 180.9986,-151 316.0014,-151 316.0014,-187"/>
<text text-anchor="middle" x="248.5" y="-164.8" font-family="Times,serif" font-size="14.00" fill="#000000">ShoppingListModule</text>
</g>
<!-- ShoppingListComponent&#45;&gt;ShoppingListModule -->
<g id="edge1" class="edge">
<title>ShoppingListComponent&#45;&gt;ShoppingListModule</title>
<path fill="none" stroke="#000000" d="M287.0544,-122.1061C287.0544,-122.1061 287.0544,-140.991 287.0544,-140.991"/>
<polygon fill="#000000" stroke="#000000" points="283.5544,-140.9909 287.0544,-150.991 290.5544,-140.991 283.5544,-140.9909"/>
</g>
<!-- ShoppingEditComponent -->
<g id="node2" class="node">
<title>ShoppingEditComponent</title>
<polygon fill="#ffffb3" stroke="#000000" points="239.8398,-122 81.1602,-122 81.1602,-86 239.8398,-86 239.8398,-122"/>
<text text-anchor="middle" x="160.5" y="-99.8" font-family="Times,serif" font-size="14.00" fill="#000000">ShoppingEditComponent</text>
</g>
<!-- ShoppingEditComponent&#45;&gt;ShoppingListModule -->
<g id="edge2" class="edge">
<title>ShoppingEditComponent&#45;&gt;ShoppingListModule</title>
<path fill="none" stroke="#000000" d="M210.3345,-122.1061C210.3345,-122.1061 210.3345,-140.991 210.3345,-140.991"/>
<polygon fill="#000000" stroke="#000000" points="206.8346,-140.9909 210.3345,-150.991 213.8346,-140.991 206.8346,-140.9909"/>
</g>
</g>
</svg>
