<?xml version="1.0" encoding="UTF-8" standalone="no"?>
<!DOCTYPE svg PUBLIC "-//W3C//DTD SVG 1.1//EN"
 "http://www.w3.org/Graphics/SVG/1.1/DTD/svg11.dtd">
<!-- Generated by graphviz version 2.40.1 (20161225.0304)
 -->
<!-- Title: dependencies Pages: 1 -->
<svg width="794pt" height="284pt"
 viewBox="0.00 0.00 794.00 284.00" xmlns="http://www.w3.org/2000/svg" xmlns:xlink="http://www.w3.org/1999/xlink">
<g id="graph0" class="graph" transform="scale(1 1) rotate(0) translate(4 280)">
<title>dependencies</title>
<polygon fill="#ffffff" stroke="transparent" points="-4,4 -4,-280 790,-280 790,4 -4,4"/>
<text text-anchor="start" x="372.0091" y="-42.4" font-family="sans-serif" font-weight="bold" font-size="14.00" fill="#000000">Legend</text>
<polygon fill="#ffffb3" stroke="transparent" points="159,-10 159,-30 179,-30 179,-10 159,-10"/>
<text text-anchor="start" x="182.629" y="-15.4" font-family="sans-serif" font-size="14.00" fill="#000000"> &#160;Declarations</text>
<polygon fill="#8dd3c7" stroke="transparent" points="272,-10 272,-30 292,-30 292,-10 272,-10"/>
<text text-anchor="start" x="295.7251" y="-15.4" font-family="sans-serif" font-size="14.00" fill="#000000"> &#160;Module</text>
<polygon fill="#80b1d3" stroke="transparent" points="358,-10 358,-30 378,-30 378,-10 358,-10"/>
<text text-anchor="start" x="381.7812" y="-15.4" font-family="sans-serif" font-size="14.00" fill="#000000"> &#160;Bootstrap</text>
<polygon fill="#fdb462" stroke="transparent" points="455,-10 455,-30 475,-30 475,-10 455,-10"/>
<text text-anchor="start" x="478.6732" y="-15.4" font-family="sans-serif" font-size="14.00" fill="#000000"> &#160;Providers</text>
<polygon fill="#fb8072" stroke="transparent" points="551,-10 551,-30 571,-30 571,-10 551,-10"/>
<text text-anchor="start" x="574.7258" y="-15.4" font-family="sans-serif" font-size="14.00" fill="#000000"> &#160;Exports</text>
<g id="clust1" class="cluster">
<title>cluster_AppModule</title>
<polygon fill="none" stroke="#000000" stroke-dasharray="1,5" points="8,-70 8,-268 778,-268 778,-70 8,-70"/>
</g>
<g id="clust2" class="cluster">
<title>cluster_AppModule_declarations</title>
<polygon fill="none" stroke="#000000" points="648,-78 648,-130 770,-130 770,-78 648,-78"/>
</g>
<g id="clust4" class="cluster">
<title>cluster_AppModule_imports</title>
<polygon fill="none" stroke="#000000" points="16,-78 16,-130 640,-130 640,-78 16,-78"/>
</g>
<g id="clust6" class="cluster">
<title>cluster_AppModule_bootstrap</title>
<polygon fill="none" stroke="#000000" points="306,-208 306,-260 430,-260 430,-208 306,-208"/>
</g>
<!-- AppComponent -->
<g id="node1" class="node">
<title>AppComponent</title>
<polygon fill="#ffffb3" stroke="#000000" points="761.9399,-122 656.0601,-122 656.0601,-86 761.9399,-86 761.9399,-122"/>
<text text-anchor="middle" x="709" y="-99.8" font-family="Times,serif" font-size="14.00" fill="#000000">AppComponent</text>
</g>
<!-- AppModule -->
<g id="node2" class="node">
<title>AppModule</title>
<polygon fill="#8dd3c7" stroke="#000000" points="409.6571,-187 406.6571,-191 385.6571,-191 382.6571,-187 326.3429,-187 326.3429,-151 409.6571,-151 409.6571,-187"/>
<text text-anchor="middle" x="368" y="-164.8" font-family="Times,serif" font-size="14.00" fill="#000000">AppModule</text>
</g>
<!-- AppComponent&#45;&gt;AppModule -->
<g id="edge1" class="edge">
<title>AppComponent&#45;&gt;AppModule</title>
<path fill="none" stroke="#000000" d="M709,-122.2843C709,-143.3211 709,-175 709,-175 709,-175 419.8133,-175 419.8133,-175"/>
<polygon fill="#000000" stroke="#000000" points="419.8133,-171.5001 409.8133,-175 419.8133,-178.5001 419.8133,-171.5001"/>
</g>
<!-- AppComponent  -->
<g id="node8" class="node">
<title>AppComponent </title>
<polygon fill="#80b1d3" stroke="#000000" points="422.439,-252 313.561,-252 313.561,-216 422.439,-216 422.439,-252"/>
<text text-anchor="middle" x="368" y="-229.8" font-family="Times,serif" font-size="14.00" fill="#000000">AppComponent </text>
</g>
<!-- AppModule&#45;&gt;AppComponent  -->
<g id="edge7" class="edge">
<title>AppModule&#45;&gt;AppComponent </title>
<path fill="none" stroke="#000000" stroke-dasharray="1,5" d="M368,-187.1061C368,-187.1061 368,-205.991 368,-205.991"/>
<polygon fill="#000000" stroke="#000000" points="364.5001,-205.9909 368,-215.991 371.5001,-205.991 364.5001,-205.9909"/>
</g>
<!-- AppRoutingModule -->
<g id="node3" class="node">
<title>AppRoutingModule</title>
<polygon fill="#8dd3c7" stroke="#000000" points="632.2744,-122 629.2744,-126 608.2744,-126 605.2744,-122 503.7256,-122 503.7256,-86 632.2744,-86 632.2744,-122"/>
<text text-anchor="middle" x="568" y="-99.8" font-family="Times,serif" font-size="14.00" fill="#000000">AppRoutingModule</text>
</g>
<!-- AppRoutingModule&#45;&gt;AppModule -->
<g id="edge2" class="edge">
<title>AppRoutingModule&#45;&gt;AppModule</title>
<path fill="none" stroke="#000000" d="M568,-122.0225C568,-139.3734 568,-163 568,-163 568,-163 419.9266,-163 419.9266,-163"/>
<polygon fill="#000000" stroke="#000000" points="419.9266,-159.5001 409.9266,-163 419.9265,-166.5001 419.9266,-159.5001"/>
</g>
<!-- SharedModule -->
<g id="node4" class="node">
<title>SharedModule</title>
<polygon fill="#8dd3c7" stroke="#000000" points="485.4231,-122 482.4231,-126 461.4231,-126 458.4231,-122 386.5769,-122 386.5769,-86 485.4231,-86 485.4231,-122"/>
<text text-anchor="middle" x="436" y="-99.8" font-family="Times,serif" font-size="14.00" fill="#000000">SharedModule</text>
</g>
<!-- SharedModule&#45;&gt;AppModule -->
<g id="edge3" class="edge">
<title>SharedModule&#45;&gt;AppModule</title>
<path fill="none" stroke="#000000" d="M398.3085,-122.1061C398.3085,-122.1061 398.3085,-140.991 398.3085,-140.991"/>
<polygon fill="#000000" stroke="#000000" points="394.8086,-140.9909 398.3085,-150.991 401.8086,-140.991 394.8086,-140.9909"/>
</g>
<!-- ShoppingListModule -->
<g id="node5" class="node">
<title>ShoppingListModule</title>
<polygon fill="#8dd3c7" stroke="#000000" points="368.5014,-122 365.5014,-126 344.5014,-126 341.5014,-122 233.4986,-122 233.4986,-86 368.5014,-86 368.5014,-122"/>
<text text-anchor="middle" x="301" y="-99.8" font-family="Times,serif" font-size="14.00" fill="#000000">ShoppingListModule</text>
</g>
<!-- ShoppingListModule&#45;&gt;AppModule -->
<g id="edge4" class="edge">
<title>ShoppingListModule&#45;&gt;AppModule</title>
<path fill="none" stroke="#000000" d="M347.3363,-122.1061C347.3363,-122.1061 347.3363,-140.991 347.3363,-140.991"/>
<polygon fill="#000000" stroke="#000000" points="343.8363,-140.9909 347.3363,-150.991 350.8363,-140.991 343.8363,-140.9909"/>
</g>
<!-- AuthModule -->
<g id="node6" class="node">
<title>AuthModule</title>
<polygon fill="#8dd3c7" stroke="#000000" points="215.5482,-122 212.5482,-126 191.5482,-126 188.5482,-122 128.4518,-122 128.4518,-86 215.5482,-86 215.5482,-122"/>
<text text-anchor="middle" x="172" y="-99.8" font-family="Times,serif" font-size="14.00" fill="#000000">AuthModule</text>
</g>
<!-- AuthModule&#45;&gt;AppModule -->
<g id="edge5" class="edge">
<title>AuthModule&#45;&gt;AppModule</title>
<path fill="none" stroke="#000000" d="M172,-122.0225C172,-139.3734 172,-163 172,-163 172,-163 315.9531,-163 315.9531,-163"/>
<polygon fill="#000000" stroke="#000000" points="315.9531,-166.5001 325.9531,-163 315.953,-159.5001 315.9531,-166.5001"/>
</g>
<!-- CoreModule -->
<g id="node7" class="node">
<title>CoreModule</title>
<polygon fill="#8dd3c7" stroke="#000000" points="110.2619,-122 107.2619,-126 86.2619,-126 83.2619,-122 23.7381,-122 23.7381,-86 110.2619,-86 110.2619,-122"/>
<text text-anchor="middle" x="67" y="-99.8" font-family="Times,serif" font-size="14.00" fill="#000000">CoreModule</text>
</g>
<!-- CoreModule&#45;&gt;AppModule -->
<g id="edge6" class="edge">
<title>CoreModule&#45;&gt;AppModule</title>
<path fill="none" stroke="#000000" d="M67,-122.2843C67,-143.3211 67,-175 67,-175 67,-175 316.1472,-175 316.1472,-175"/>
<polygon fill="#000000" stroke="#000000" points="316.1473,-178.5001 326.1472,-175 316.1472,-171.5001 316.1473,-178.5001"/>
</g>
</g>
</svg>
